<svg xmlns="http://www.w3.org/2000/svg" viewBox="0 0 61.33 77.98"><defs><style>.cls-1{fill:#fff;}.cls-2{fill:#8296f0;}</style></defs><g id="レイヤー_2" data-name="レイヤー 2"><g id="DATA"><polygon class="cls-1" points="5.47 77.98 10.66 77.98 10.66 74.26 15.18 74.26 15.18 71.72 10.66 71.72 10.66 70.53 15.79 70.53 15.79 66.42 5.47 66.42 5.47 77.98"/><path class="cls-1" d="M17,71.72h4.53V70.53H22.7v2.21H17V78H27.22v-8.8H17Zm5.69,4.91H21.54V74.09H22.7Z"/><rect class="cls-1" x="28.45" y="69.18" width="4.53" height="8.8"/><rect class="cls-1" x="28.45" y="66.42" width="4.53" height="1.73"/><polygon class="cls-1" points="38.73 66.42 34.21 66.42 34.2 77.98 44.41 77.98 44.41 72.74 39.88 72.74 39.88 76.63 38.73 76.63 38.73 71.72 44.42 71.72 44.42 69.18 38.73 69.18 38.73 66.42"/><polygon class="cls-1" points="50.18 69.18 50.18 66.42 45.65 66.42 45.64 77.98 50.17 77.98 50.17 70.53 51.33 70.53 51.33 77.98 55.85 77.98 55.86 69.18 50.18 69.18"/><path class="cls-2" d="M10.14,53.43,55.55,22.79a25.38,25.38,0,0,0-1.1-2.87L26.17,35.7h0c-1.6.9-2.46.08-2.05-1.63l2.91-12-4.49,2.51L15.21,41.82,5.05,47.5A30.69,30.69,0,0,0,10.14,53.43Z"/><path class="cls-1" d="M2.89,43.65l2.67-1.49,10.3-5.75,1.94-4.57L4.43,39.3a27.6,27.6,0,0,1,44.84-29h4.27A30.65,30.65,0,0,0,1.73,40.81C2.07,41.78,2.46,42.73,2.89,43.65Z"/><polygon class="cls-1" points="43.21 17.65 27.55 26.4 26.57 30.43 59.94 11.8 39.95 11.8 43.21 17.65"/><path class="cls-1" d="M58.44,17.69l-2.66,1.49A27.61,27.61,0,0,1,14,52.67l-2.64,1.79A30.65,30.65,0,0,0,58.44,17.69Z"/></g></g></svg>